<svg version="1.1" id="Layer_1" xmlns="http://www.w3.org/2000/svg" xmlns:xlink="http://www.w3.org/1999/xlink" x="0px" y="0px"
	 width="100%" viewBox="0 0 286 417" enable-background="new 0 0 286 417" xml:space="preserve">
<path fill="#FFFFFF" opacity="1.000000" stroke="none" 
	d="
M1.000000,117.000000 
	C1.000000,78.386925 1.000000,39.773846 1.000000,1.000000 
	C67.354141,1.000000 133.708405,1.000000 200.543671,1.263320 
	C201.071625,1.695994 201.118561,1.865348 201.094894,2.496353 
	C201.016205,139.438904 201.004974,275.919800 201.041290,412.400696 
	C201.041687,413.877625 201.663956,415.354401 202.404160,416.902710 
	C233.994263,411.751984 262.078735,399.477173 287.000000,380.000000 
	C287.000000,392.626373 287.000000,405.252777 287.000000,418.000000 
	C253.979202,418.000000 220.958252,418.000000 187.469269,417.531342 
	C187.001266,315.767548 187.001312,214.472412 187.001236,113.177284 
	C187.001236,111.844452 187.238174,110.452736 186.927917,109.196320 
	C186.649963,108.070778 186.024948,106.672279 185.113144,106.118393 
	C177.496201,101.491447 169.813614,96.969002 162.081909,92.535225 
	C146.558212,83.633072 131.009323,74.774376 115.430206,65.969650 
	C110.899200,63.408905 106.230362,61.092068 100.998642,58.333290 
	C100.998642,61.330402 100.998642,63.316360 100.998642,65.302322 
	C100.998642,173.261658 101.084297,281.221222 100.819710,389.179901 
	C100.800613,396.973511 101.847916,401.996765 110.312553,404.211731 
	C120.600952,406.903961 130.534317,410.924347 140.744751,413.954071 
	C146.705200,415.722717 152.906860,416.678497 159.000000,418.000000 
	C106.414864,418.000000 53.829727,418.000000 1.000000,418.000000 
	C1.000000,376.646088 1.000000,335.291718 1.333999,293.593384 
	C4.044840,297.670135 6.488814,302.056244 8.786877,306.517487 
	C18.643330,325.652039 30.966793,343.034729 46.002403,358.427185 
	C52.127739,364.697906 58.365086,370.943848 65.157394,376.454132 
	C71.688393,381.752411 79.002274,386.085663 86.381554,390.703491 
	C86.857437,390.071625 86.982147,389.579163 86.982224,389.086731 
	C86.993927,315.563416 87.001213,242.040100 86.956528,168.516815 
	C86.955849,167.394730 86.307663,166.273041 85.644958,164.990997 
	C78.433601,160.864075 71.528465,156.915421 64.646461,152.926834 
	C50.152691,144.526718 35.715401,136.027908 21.164465,127.728210 
	C14.553919,123.957634 7.728145,120.564400 1.000000,117.000000 
z"/>
<path fill="#00A4EF" opacity="1.000000" stroke="none" 
	d="
M201.165497,2.034701 
	C201.118561,1.865348 201.071625,1.695994 201.012329,1.263320 
	C202.066666,1.000000 203.133347,1.000000 204.700562,1.335877 
	C214.735306,7.239768 224.248306,12.844444 233.808243,18.367865 
	C251.524353,28.603653 269.267883,38.791935 287.000000,49.000000 
	C287.000000,159.020889 287.000000,269.041779 287.000000,379.531342 
	C262.078735,399.477173 233.994263,411.751984 202.404938,416.445312 
	C201.998322,279.876923 202.002594,143.837433 201.965347,7.797945 
	C201.964813,5.876791 201.443665,3.955779 201.165497,2.034701 
M261.391815,204.002579 
	C262.390564,204.002411 263.389343,204.007599 264.388062,204.001190 
	C270.096436,203.964554 272.970490,201.897125 272.856476,197.913116 
	C272.747955,194.121780 269.919891,192.092285 264.580200,192.083969 
	C251.097122,192.062973 237.614014,192.062378 224.130951,192.083725 
	C218.741302,192.092255 216.035110,194.087601 215.978546,197.979019 
	C215.921463,201.904892 218.625092,203.983093 223.964722,203.994202 
	C236.116104,204.019455 248.267548,204.002441 261.391815,204.002579 
M222.037415,215.005493 
	C218.053085,215.309174 215.734329,217.454178 216.062668,221.448105 
	C216.394409,225.483093 219.242111,226.941727 223.074814,226.933868 
	C237.064468,226.905212 251.054443,226.879837 265.043823,226.948685 
	C269.230499,226.969284 272.374207,225.705627 272.808075,221.107101 
	C273.171143,217.259018 270.149048,215.016251 264.908539,215.006866 
	C250.918869,214.981812 236.929123,214.998703 222.037415,215.005493 
z"/>
<path fill="#7FBA00" opacity="1.000000" stroke="none" 
	d="
M159.468658,418.000000 
	C152.906860,416.678497 146.705200,415.722717 140.744751,413.954071 
	C130.534317,410.924347 120.600952,406.903961 110.312553,404.211731 
	C101.847916,401.996765 100.800613,396.973511 100.819710,389.179901 
	C101.084297,281.221222 100.998642,173.261658 100.998642,65.302322 
	C100.998642,63.316360 100.998642,61.330402 100.998642,58.333290 
	C106.230362,61.092068 110.899200,63.408905 115.430206,65.969650 
	C131.009323,74.774376 146.558212,83.633072 162.081909,92.535225 
	C169.813614,96.969002 177.496201,101.491447 185.113144,106.118393 
	C186.024948,106.672279 186.649963,108.070778 186.927917,109.196320 
	C187.238174,110.452736 187.001236,111.844452 187.001236,113.177284 
	C187.001312,214.472412 187.001266,315.767548 187.000610,417.531342 
	C177.979111,418.000000 168.958206,418.000000 159.468658,418.000000 
M122.796173,244.342773 
	C136.961182,244.342514 151.126236,244.325226 165.291199,244.352737 
	C169.355057,244.360626 172.295090,242.933746 172.256500,238.433044 
	C172.217667,233.903076 169.214279,232.663956 165.163818,232.681427 
	C150.999084,232.742554 136.833801,232.734848 122.668976,232.686218 
	C118.845222,232.673096 115.984650,233.851242 115.753700,238.102783 
	C115.529724,242.225891 117.885643,244.169022 122.796173,244.342773 
z"/>
<path fill="#FFB900" opacity="1.000000" stroke="none" 
	d="
M1.000000,117.468658 
	C7.728145,120.564400 14.553919,123.957634 21.164465,127.728210 
	C35.715401,136.027908 50.152691,144.526718 64.646461,152.926834 
	C71.528465,156.915421 78.433601,160.864075 85.656570,165.449402 
	C85.980652,240.992950 85.976418,315.917938 85.972183,390.842926 
	C79.002274,386.085663 71.688393,381.752411 65.157394,376.454132 
	C58.365086,370.943848 52.127739,364.697906 46.002403,358.427185 
	C30.966793,343.034729 18.643330,325.652039 8.786877,306.517487 
	C6.488814,302.056244 4.044840,297.670135 1.333999,293.124725 
	C1.000000,234.645767 1.000000,176.291550 1.000000,117.468658 
M16.799532,250.248428 
	C13.621941,256.179596 15.724054,260.006561 22.288883,260.105713 
	C27.233448,260.180420 32.180042,260.120514 37.577873,260.120514 
	C37.577873,265.575531 37.485519,270.381439 37.603630,275.182190 
	C37.723743,280.064117 40.058697,283.039673 43.678833,282.727692 
	C48.239899,282.334625 49.708290,279.208557 49.684792,275.038910 
	C49.657822,270.253174 49.678539,265.467163 49.678539,260.121338 
	C54.973511,260.121338 59.754509,260.150330 64.534996,260.113373 
	C69.530693,260.074738 72.229828,258.013580 71.986786,254.194763 
	C71.686737,249.480331 68.438591,248.239609 64.341942,248.238251 
	C59.581940,248.236679 54.821938,248.237885 49.677223,248.237885 
	C49.677223,242.893204 49.674854,238.260284 49.677937,233.627365 
	C49.680660,229.526657 48.458393,226.280975 43.718876,226.011185 
	C39.888557,225.793152 37.712467,228.451248 37.596569,233.426102 
	C37.485592,238.189606 37.572617,242.957733 37.572617,248.235703 
	C34.465740,248.235703 31.989450,248.064285 29.545938,248.274277 
	C25.479969,248.623672 21.435019,249.217682 16.799532,250.248428 
z"/>
<path fill="#FFFFFF" opacity="1.000000" stroke="none" 
	d="
M287.000000,48.531342 
	C269.267883,38.791935 251.524353,28.603653 233.808243,18.367865 
	C224.248306,12.844444 214.735306,7.239768 205.100555,1.335877 
	C232.241028,1.000000 259.482056,1.000000 287.000000,1.000000 
	C287.000000,16.686476 287.000000,32.374580 287.000000,48.531342 
z"/>
<path fill="#0097E2" opacity="1.000000" stroke="none" 
	d="
M201.094894,2.496353 
	C201.443665,3.955779 201.964813,5.876791 201.965347,7.797945 
	C202.002594,143.837433 201.998322,279.876923 201.996704,416.373840 
	C201.663956,415.354401 201.041687,413.877625 201.041290,412.400696 
	C201.004974,275.919800 201.016205,139.438904 201.094894,2.496353 
z"/>
<path fill="#F1B500" opacity="1.000000" stroke="none" 
	d="
M86.381561,390.703491 
	C85.976418,315.917938 85.980652,240.992950 85.973267,165.609558 
	C86.307663,166.273041 86.955849,167.394730 86.956528,168.516815 
	C87.001213,242.040100 86.993927,315.563416 86.982224,389.086731 
	C86.982147,389.579163 86.857437,390.071625 86.381561,390.703491 
z"/>
<path fill="#F8FCFE" opacity="1.000000" stroke="none" 
	d="
M260.905396,204.002579 
	C248.267548,204.002441 236.116104,204.019455 223.964722,203.994202 
	C218.625092,203.983093 215.921463,201.904892 215.978546,197.979019 
	C216.035110,194.087601 218.741302,192.092255 224.130951,192.083725 
	C237.614014,192.062378 251.097122,192.062973 264.580200,192.083969 
	C269.919891,192.092285 272.747955,194.121780 272.856476,197.913116 
	C272.970490,201.897125 270.096436,203.964554 264.388062,204.001190 
	C263.389343,204.007599 262.390564,204.002411 260.905396,204.002579 
z"/>
<path fill="#F8FCFE" opacity="1.000000" stroke="none" 
	d="
M222.488403,215.002213 
	C236.929123,214.998703 250.918869,214.981812 264.908539,215.006866 
	C270.149048,215.016251 273.171143,217.259018 272.808075,221.107101 
	C272.374207,225.705627 269.230499,226.969284 265.043823,226.948685 
	C251.054443,226.879837 237.064468,226.905212 223.074814,226.933868 
	C219.242111,226.941727 216.394409,225.483093 216.062668,221.448105 
	C215.734329,217.454178 218.053085,215.309174 222.488403,215.002213 
z"/>
<path fill="#FEFFFD" opacity="1.000000" stroke="none" 
	d="
M122.335388,244.338608 
	C117.885643,244.169022 115.529724,242.225891 115.753700,238.102783 
	C115.984650,233.851242 118.845222,232.673096 122.668976,232.686218 
	C136.833801,232.734848 150.999084,232.742554 165.163818,232.681427 
	C169.214279,232.663956 172.217667,233.903076 172.256500,238.433044 
	C172.295090,242.933746 169.355057,244.360626 165.291199,244.352737 
	C151.126236,244.325226 136.961182,244.342514 122.335388,244.338608 
z"/>
<path fill="#FFFDF7" opacity="1.000000" stroke="none" 
	d="
M17.090374,249.978546 
	C21.435019,249.217682 25.479969,248.623672 29.545938,248.274277 
	C31.989450,248.064285 34.465740,248.235703 37.572617,248.235703 
	C37.572617,242.957733 37.485592,238.189606 37.596569,233.426102 
	C37.712467,228.451248 39.888557,225.793152 43.718876,226.011185 
	C48.458393,226.280975 49.680660,229.526657 49.677937,233.627365 
	C49.674854,238.260284 49.677223,242.893204 49.677223,248.237885 
	C54.821938,248.237885 59.581940,248.236679 64.341942,248.238251 
	C68.438591,248.239609 71.686737,249.480331 71.986786,254.194763 
	C72.229828,258.013580 69.530693,260.074738 64.534996,260.113373 
	C59.754509,260.150330 54.973511,260.121338 49.678539,260.121338 
	C49.678539,265.467163 49.657822,270.253174 49.684792,275.038910 
	C49.708290,279.208557 48.239899,282.334625 43.678833,282.727692 
	C40.058697,283.039673 37.723743,280.064117 37.603630,275.182190 
	C37.485519,270.381439 37.577873,265.575531 37.577873,260.120514 
	C32.180042,260.120514 27.233448,260.180420 22.288883,260.105713 
	C15.724054,260.006561 13.621941,256.179596 17.090374,249.978546 
z"/>
</svg>