<svg xmlns="http://www.w3.org/2000/svg" viewBox="0 0 640.45 936.96"><defs><style>.cls-1{fill:#ffb900;}.cls-2{fill:#fff;}.cls-3{fill:#7fba00;}.cls-4{fill:#00a4ef;}</style></defs><g id="Layer_2" data-name="Layer 2"><g id="Good_One" data-name="Good One"><path class="cls-1" d="M0,649.85c44.12,96.2,110.2,174.81,189.76,225.3V370.38L0,260.92Zm44.36-93.74H81.7V518.77a13.18,13.18,0,0,1,26.36,0v37.34h37.33a13.18,13.18,0,1,1,0,26.36H108.06v37.34a13.18,13.18,0,0,1-26.36,0V582.47H44.36a13.18,13.18,0,1,1,0-26.36Z"/><path class="cls-2" d="M44.36,582.47H81.7v37.34a13.18,13.18,0,0,0,26.36,0V582.47h37.33a13.18,13.18,0,1,0,0-26.36H108.06V518.77a13.18,13.18,0,0,0-26.36,0v37.34H44.36a13.18,13.18,0,1,0,0,26.36Z"/><path class="cls-3" d="M225.34,895.38C278.41,922.2,336.46,937,397.28,937h17.83V239L225.34,130.46Zm44.37-374.85h101a13.18,13.18,0,1,1,0,26.36h-101a13.18,13.18,0,0,1,0-26.36Z"/><path class="cls-2" d="M269.71,546.89h101a13.18,13.18,0,1,0,0-26.36h-101a13.18,13.18,0,0,0,0,26.36Z"/><path class="cls-4" d="M450.69,0V933.12c69.14-10,133.58-39.19,189.76-83.17V109.56Zm145.4,507.35h-101a13.18,13.18,0,0,1,0-26.35h101a13.18,13.18,0,0,1,0,26.35Zm0-51.39h-101a13.18,13.18,0,0,1,0-26.36h101a13.18,13.18,0,0,1,0,26.36Z"/><path class="cls-2" d="M596.09,481h-101a13.18,13.18,0,0,0,0,26.35h101a13.18,13.18,0,0,0,0-26.35Z"/><path class="cls-2" d="M596.09,429.6h-101a13.18,13.18,0,0,0,0,26.36h101a13.18,13.18,0,0,0,0-26.36Z"/></g></g></svg>